<svg width="51" height="53" viewBox="0 0 51 53" fill="none" xmlns="http://www.w3.org/2000/svg">
<g clip-path="url(#clip0_419_2248)">
<path d="M27.8201 43.4999L34.5001 52.4999H39.1501L27.8201 38.5999V43.4999Z" fill="white"/>
<path d="M34.19 33.7H15.17V36.2H22.15H27.21H34.19V33.7Z" fill="white"/>
<path d="M14.87 52.4999L21.55 43.4999V38.5999L10.22 52.4999H14.87Z" fill="white"/>
<path d="M26.6 37.5H22.76V52.5H26.6V37.5Z" fill="white"/>
<path d="M34.8 32.4999H48.05V3.69995H1.20996V32.4999H34.8ZM20.8 28.1C20.5433 28.098 20.2929 28.0201 20.0804 27.876C19.868 27.732 19.7029 27.5282 19.6061 27.2905C19.5092 27.0528 19.4849 26.7918 19.5362 26.5403C19.5875 26.2888 19.712 26.0581 19.8942 25.8773C20.0764 25.6964 20.3081 25.5736 20.56 25.5242C20.8119 25.4749 21.0728 25.5012 21.3098 25.5999C21.5467 25.6986 21.7491 25.8652 21.8915 26.0787C22.0339 26.2923 22.11 26.5432 22.11 26.7999C22.1027 27.1373 21.9674 27.4593 21.7316 27.7007C21.4958 27.9421 21.1771 28.0848 20.84 28.1H20.8ZM43.5599 28.7H39.72C39.5608 28.7 39.4082 28.6368 39.2957 28.5242C39.1832 28.4117 39.1199 28.2591 39.1199 28.1C39.1199 27.9408 39.1832 27.7882 39.2957 27.6757C39.4082 27.5631 39.5608 27.4999 39.72 27.4999H43.5599C43.717 27.5092 43.8654 27.5751 43.9776 27.6854C44.0898 27.7958 44.1581 27.9431 44.17 28.1C44.1726 28.177 44.16 28.2537 44.1326 28.3257C44.1053 28.3978 44.0639 28.4637 44.0108 28.5195C43.9577 28.5754 43.8941 28.6201 43.8235 28.6511C43.753 28.682 43.677 28.6987 43.6 28.7H43.5599ZM44.27 24.2999C44.2581 24.4568 44.1898 24.6041 44.0776 24.7145C43.9655 24.8248 43.817 24.8907 43.66 24.9H39.8199C39.6608 24.9 39.5082 24.8368 39.3957 24.7242C39.2832 24.6117 39.22 24.4591 39.22 24.2999C39.22 24.1408 39.2832 23.9882 39.3957 23.8757C39.5082 23.7631 39.6608 23.7 39.8199 23.7H43.66C43.824 23.6995 43.9822 23.761 44.1028 23.8723C44.2233 23.9836 44.2973 24.1363 44.3099 24.2999H44.27ZM28.39 9.29993C28.6462 9.30387 28.8956 9.38347 29.1067 9.52869C29.3178 9.67391 29.4813 9.87829 29.5767 10.1161C29.672 10.354 29.6949 10.6148 29.6425 10.8656C29.5901 11.1164 29.4647 11.3462 29.2822 11.526C29.0996 11.7058 28.8679 11.8277 28.6163 11.8762C28.3647 11.9248 28.1044 11.8979 27.868 11.799C27.6316 11.7 27.4297 11.5334 27.2877 11.3201C27.1457 11.1067 27.07 10.8562 27.0699 10.6C27.0738 10.4253 27.1122 10.2531 27.1826 10.0932C27.2531 9.93332 27.3544 9.78894 27.4807 9.66821C27.6069 9.54749 27.7558 9.45283 27.9186 9.38965C28.0815 9.32647 28.2553 9.29594 28.4299 9.29993H28.39ZM10.6799 9.29993C10.9366 9.3019 11.187 9.37982 11.3995 9.52386C11.6119 9.66791 11.777 9.87166 11.8738 10.1094C11.9707 10.3471 11.995 10.6081 11.9437 10.8596C11.8924 11.1111 11.7679 11.3418 11.5857 11.5226C11.4035 11.7035 11.1718 11.8263 10.9199 11.8757C10.668 11.925 10.4071 11.8987 10.1702 11.8C9.9332 11.7013 9.73079 11.5347 9.58838 11.3212C9.44597 11.1076 9.36994 10.8567 9.36993 10.6C9.37781 10.249 9.5242 9.91528 9.7771 9.67175C10.03 9.42822 10.3689 9.29456 10.72 9.29993H10.6799ZM12.91 23.9999C12.3137 24.5812 11.5126 24.9045 10.6799 24.9C9.85776 24.9 9.06928 24.5734 8.48792 23.992C7.90655 23.4106 7.57996 22.6221 7.57996 21.7999C7.57996 20.9778 7.90655 20.1893 8.48792 19.6079C9.06928 19.0265 9.85776 18.7 10.6799 18.7C11.2876 18.7104 11.8814 18.883 12.4 19.2L18.17 13.4999C17.7578 12.91 17.5713 12.1915 17.6448 11.4756C17.7182 10.7596 18.0466 10.094 18.5699 9.59998C19.1662 9.01873 19.9673 8.69542 20.8 8.69995C21.3821 8.69622 21.9537 8.85493 22.4506 9.1582C22.9475 9.46148 23.35 9.89732 23.6129 10.4167C23.8757 10.9362 23.9884 11.5186 23.9385 12.0986C23.8885 12.6786 23.6778 13.2331 23.33 13.7L25.65 19.1C26.1281 18.8755 26.6432 18.7399 27.17 18.7C27.7776 18.7104 28.3714 18.883 28.89 19.2L34.66 13.4999C34.2478 12.91 34.0613 12.1915 34.1348 11.4756C34.2082 10.7596 34.5365 10.094 35.0599 9.59998C35.6562 9.01873 36.4573 8.69542 37.29 8.69995C38.1121 8.69995 38.9006 9.02655 39.482 9.60791C40.0634 10.1893 40.39 10.9778 40.39 11.7999C40.39 12.6221 40.0634 13.4106 39.482 13.992C38.9006 14.5734 38.1121 14.9 37.29 14.9C36.6823 14.8895 36.0885 14.7169 35.5699 14.4L29.8 20.1C30.2122 20.6899 30.3986 21.4084 30.3251 22.1243C30.2517 22.8403 29.9234 23.5059 29.4 23.9999C28.8037 24.5812 28.0027 24.9045 27.17 24.9C26.5879 24.9037 26.0162 24.745 25.5193 24.4417C25.0224 24.1384 24.6199 23.7026 24.3571 23.1832C24.0942 22.6637 23.9815 22.0813 24.0314 21.5013C24.0814 20.9214 24.2921 20.3668 24.64 19.9L22.3199 14.4999C21.8418 14.7245 21.3267 14.86 20.8 14.9C20.1923 14.8895 19.5985 14.7169 19.08 14.4L13.3099 20.1C13.7271 20.6853 13.9203 21.401 13.8542 22.1168C13.7881 22.8326 13.4672 23.5008 12.95 23.9999H12.91Z" fill="white"/>
<path d="M27.2101 23.6998C27.6962 23.6991 28.1655 23.5214 28.5301 23.1998C28.8674 22.8311 29.0544 22.3495 29.0544 21.8498C29.0544 21.3501 28.8674 20.8685 28.5301 20.4998C28.3587 20.3268 28.1522 20.1926 27.9244 20.1064C27.6967 20.0201 27.4531 19.9837 27.2101 19.9998C26.7262 19.9963 26.2586 20.1748 25.9001 20.4998C25.5628 20.8685 25.3757 21.3501 25.3757 21.8498C25.3757 22.3495 25.5628 22.8311 25.9001 23.1998C26.2586 23.5248 26.7262 23.7033 27.2101 23.6998Z" fill="white"/>
<path d="M10.7201 19.9997C10.2362 19.9963 9.76864 20.1747 9.4101 20.4997C9.07279 20.8684 8.88574 21.3501 8.88574 21.8498C8.88574 22.3495 9.07279 22.8311 9.4101 23.1998C9.57955 23.3725 9.78434 23.5066 10.0104 23.5929C10.2365 23.6792 10.4786 23.7157 10.7201 23.6998C11.2062 23.6991 11.6755 23.5213 12.0401 23.1998C12.3774 22.8311 12.5645 22.3495 12.5645 21.8498C12.5645 21.3501 12.3774 20.8684 12.0401 20.4997C11.8739 20.3198 11.6681 20.1809 11.439 20.0942C11.2099 20.0074 10.9638 19.9751 10.7201 19.9997Z" fill="white"/>
<path d="M48.0501 39.9998C47.557 40.0058 47.0766 40.1574 46.6694 40.4357C46.2623 40.714 45.9465 41.1064 45.7619 41.5637C45.5773 42.021 45.532 42.5227 45.6318 43.0057C45.7316 43.4887 45.9721 43.9313 46.3229 44.278C46.6737 44.6246 47.1191 44.8597 47.6033 44.9538C48.0874 45.0478 48.5885 44.9966 49.0436 44.8065C49.4986 44.6165 49.8874 44.296 50.1608 43.8856C50.4342 43.4751 50.58 42.993 50.5801 42.4998C50.5814 42.1686 50.5167 41.8405 50.3897 41.5346C50.2627 41.2287 50.0759 40.9512 49.8403 40.7183C49.6047 40.4855 49.325 40.3021 49.0176 40.1787C48.7102 40.0554 48.3813 39.9945 48.0501 39.9998Z" fill="white"/>
<path d="M1.92004 42.5C1.66922 42.4987 1.42059 42.5468 1.18835 42.6416C0.956119 42.7363 0.744817 42.876 0.566528 43.0524C0.388239 43.2288 0.246429 43.4387 0.149231 43.6699C0.0520324 43.9011 0.00130979 44.1492 0 44.4001C0 44.9093 0.202308 45.3976 0.562378 45.7577C0.922448 46.1177 1.41083 46.32 1.92004 46.32C2.42926 46.32 2.91758 46.1177 3.27765 45.7577C3.63772 45.3976 3.84003 44.9093 3.84003 44.4001C3.83872 44.1492 3.78799 43.9011 3.6908 43.6699C3.5936 43.4387 3.45185 43.2288 3.27356 43.0524C3.09527 42.876 2.88397 42.7363 2.65173 42.6416C2.4195 42.5468 2.17087 42.4987 1.92004 42.5Z" fill="white"/>
<path d="M20.84 13.6997C21.3239 13.7032 21.7914 13.5248 22.15 13.1997C22.4873 12.8311 22.6743 12.3495 22.6743 11.8498C22.6743 11.3501 22.4873 10.8684 22.15 10.4997C21.9805 10.327 21.7757 10.1928 21.5496 10.1065C21.3235 10.0203 21.0814 9.98381 20.84 9.99974C20.3538 10.0004 19.8846 10.1782 19.52 10.4997C19.1827 10.8684 18.9956 11.3501 18.9956 11.8498C18.9956 12.3495 19.1827 12.8311 19.52 13.1997C19.8915 13.5095 20.3564 13.6856 20.84 13.6997Z" fill="white"/>
<path d="M34.8 -0.000116196H14.5699C13.8418 0.00311336 13.1359 0.251577 12.5662 0.705145C11.9965 1.15871 11.5962 1.79094 11.4299 2.49988H37.83C37.7099 1.78848 37.3376 1.14416 36.7811 0.685003C36.2246 0.225849 35.5212 -0.0173868 34.8 -0.000116196Z" fill="white"/>
<path d="M37.33 13.6997C37.8139 13.7032 38.2814 13.5248 38.64 13.1997C38.9773 12.8311 39.1643 12.3495 39.1643 11.8498C39.1643 11.3501 38.9773 10.8684 38.64 10.4997C38.4705 10.327 38.2657 10.1928 38.0396 10.1065C37.8135 10.0203 37.5714 9.98381 37.33 9.99974C36.8438 10.0004 36.3746 10.1782 36.0099 10.4997C35.6726 10.8684 35.4856 11.3501 35.4856 11.8498C35.4856 12.3495 35.6726 12.8311 36.0099 13.1997C36.3746 13.5213 36.8438 13.699 37.33 13.6997Z" fill="white"/>
</g>
<defs>
<clipPath id="clip0_419_2248">
<rect width="50.58" height="52.5" fill="white"/>
</clipPath>
</defs>
</svg>
