<svg width="57" height="56" viewBox="0 0 57 56" fill="none" xmlns="http://www.w3.org/2000/svg">
<g clip-path="url(#clip0_419_2226)">
<path d="M3.75 48.8501V45.7501C3.76895 45.6031 3.8408 45.4679 3.95215 45.37C4.0635 45.2721 4.20676 45.2181 4.35504 45.2181C4.50332 45.2181 4.64652 45.2721 4.75787 45.37C4.86922 45.4679 4.94108 45.6031 4.96002 45.7501V48.8501H13.89V45.7501C13.89 45.5883 13.9543 45.4332 14.0687 45.3188C14.1831 45.2044 14.3382 45.1401 14.5 45.1401C14.6618 45.1401 14.8169 45.2044 14.9313 45.3188C15.0457 45.4332 15.11 45.5883 15.11 45.7501V48.8501H18.11C17.7979 47.8455 17.6296 46.8019 17.61 45.7501C17.6058 44.5575 17.8089 43.3733 18.21 42.2501C17.5408 40.6523 16.4562 39.2626 15.0688 38.2252C13.6815 37.1877 12.0419 36.5403 10.32 36.3501L12.45 41.6501C12.4827 41.7673 12.4906 41.8901 12.4734 42.0106C12.4562 42.1311 12.4142 42.2467 12.35 42.3501L9.82001 44.8501C9.70632 44.9561 9.56358 45.0258 9.41003 45.0501C9.25966 45.0251 9.12027 44.9554 9.01001 44.8501L6.48004 42.3501C6.38999 42.2599 6.33156 42.1429 6.31354 42.0167C6.29551 41.8905 6.31882 41.7619 6.38 41.6501L8.5 36.3501C6.1883 36.5857 4.04422 37.664 2.47656 39.3792C0.908901 41.0944 0.0273218 43.3266 0 45.6501C0.0149256 46.703 0.186826 47.7479 0.51001 48.7501H3.75V48.8501Z" fill="white"/>
<path d="M32.89 30.6499C32.8999 29.7677 32.6473 28.9025 32.1644 28.1642C31.6815 27.4258 30.99 26.8476 30.1778 26.5031C29.3656 26.1587 28.4693 26.0634 27.6029 26.2294C26.7364 26.3954 25.9388 26.8152 25.3115 27.4355C24.6841 28.0558 24.2553 28.8486 24.0795 29.7132C23.9037 30.5777 23.9888 31.4751 24.3241 32.2911C24.6594 33.1072 25.2297 33.8051 25.9625 34.2963C26.6954 34.7875 27.5577 35.0498 28.44 35.0499C29.6108 35.0474 30.7336 34.5846 31.5662 33.7614C32.3987 32.9382 32.8742 31.8206 32.89 30.6499Z" fill="white"/>
<path d="M28.4301 43.5501L30.2501 41.7501L28.4301 37.3501L26.6001 41.7501L28.4301 43.5501Z" fill="white"/>
<path d="M5.05985 30.65C5.04994 31.5322 5.30247 32.3974 5.78538 33.1357C6.26828 33.8741 6.9598 34.4523 7.77201 34.7968C8.58422 35.1412 9.48048 35.2365 10.347 35.0705C11.2134 34.9045 12.011 34.4846 12.6384 33.8643C13.2658 33.244 13.6945 32.4512 13.8703 31.5867C14.0461 30.7221 13.961 29.8248 13.6257 29.0088C13.2904 28.1927 12.7201 27.4948 11.9873 27.0035C11.2544 26.5123 10.3921 26.2501 9.50986 26.25C8.33984 26.2551 7.21845 26.7187 6.38645 27.5414C5.55445 28.364 5.07816 29.4801 5.05985 30.65Z" fill="white"/>
<path d="M9.50994 43.5501L11.2299 41.7501L9.50994 37.3501L7.68994 41.7501L9.50994 43.5501Z" fill="white"/>
<path d="M50.58 18.8501C51.3298 18.8422 52.0606 18.6126 52.6802 18.1903C53.2998 17.768 53.7806 17.1718 54.0621 16.4768C54.3436 15.7817 54.4132 15.019 54.2621 14.2845C54.111 13.55 53.7459 12.8767 53.2129 12.3493C52.6799 11.8218 52.0028 11.4638 51.2668 11.3204C50.5308 11.177 49.7688 11.2545 49.0767 11.5433C48.3847 11.832 47.7936 12.3191 47.3777 12.9431C46.9619 13.5671 46.74 14.3002 46.74 15.0501C46.7426 15.5517 46.8441 16.0479 47.0385 16.5104C47.2328 16.9729 47.5164 17.3925 47.873 17.7454C48.2296 18.0982 48.6522 18.3774 49.1166 18.567C49.5811 18.7565 50.0784 18.8527 50.58 18.8501Z" fill="white"/>
<path d="M53.7199 5.65006C53.9761 5.654 54.2254 5.73359 54.4366 5.87882C54.6477 6.02404 54.8112 6.22842 54.9066 6.46628C55.0019 6.70414 55.0248 6.96489 54.9724 7.21573C54.92 7.46657 54.7946 7.69632 54.6121 7.87613C54.4295 8.05594 54.1978 8.17779 53.9462 8.22635C53.6946 8.27491 53.4343 8.24803 53.1979 8.14908C52.9615 8.05013 52.7597 7.88353 52.6177 7.6702C52.4757 7.45687 52.3999 7.20636 52.3999 6.9501C52.3999 6.77769 52.4342 6.60695 52.5007 6.44791C52.5673 6.28887 52.6649 6.14469 52.7877 6.02371C52.9106 5.90273 53.0562 5.8074 53.2162 5.74326C53.3763 5.67911 53.5475 5.6474 53.7199 5.65006Z" fill="white"/>
<path d="M56.35 48.8502C56.7132 47.858 56.8862 46.8064 56.8599 45.7502C56.8663 43.4169 55.9962 41.1662 54.4221 39.4439C52.8479 37.7216 50.6844 36.6532 48.3599 36.4502L50.48 41.7502C50.5126 41.8674 50.5206 41.9902 50.5034 42.1107C50.4861 42.2311 50.4441 42.3468 50.3799 42.4502L47.89 44.9502C47.7797 45.0555 47.6403 45.1251 47.4899 45.1501C47.3364 45.1258 47.1936 45.0562 47.08 44.9502L44.5499 42.4502C44.4599 42.36 44.4015 42.243 44.3835 42.1168C44.3655 41.9906 44.3888 41.862 44.45 41.7502L46.58 36.4502C44.8568 36.6363 43.2153 37.2821 41.8273 38.32C40.4392 39.358 39.3556 40.7499 38.6899 42.3502C39.0911 43.4733 39.2941 44.6576 39.29 45.8502C39.2783 46.9026 39.1098 47.9474 38.79 48.9502H41.79V45.8502C41.79 45.6884 41.8542 45.5332 41.9686 45.4188C42.083 45.3044 42.2382 45.2402 42.4 45.2402C42.5617 45.2402 42.7169 45.3044 42.8313 45.4188C42.9457 45.5332 43.0099 45.6884 43.0099 45.8502V48.9502H51.89V45.8502C51.9089 45.7031 51.9808 45.568 52.0921 45.47C52.2035 45.3721 52.3467 45.3181 52.4949 45.3181C52.6432 45.3181 52.7864 45.3721 52.8978 45.47C53.0091 45.568 53.081 45.7031 53.1 45.8502V48.9502H56.34L56.35 48.8502Z" fill="white"/>
<path d="M37.33 48.8502C37.698 47.8593 37.8712 46.8067 37.84 45.7502C37.8464 43.4169 36.9763 41.1662 35.4022 39.4439C33.828 37.7216 31.6645 36.6532 29.34 36.4502L31.46 41.7502C31.4952 41.8671 31.5045 41.9903 31.4872 42.1112C31.47 42.2321 31.4265 42.3478 31.36 42.4502L28.83 44.9502C28.7834 45.0123 28.7231 45.0627 28.6536 45.0974C28.5842 45.1321 28.5076 45.1501 28.43 45.1501C28.3524 45.1501 28.2758 45.1321 28.2064 45.0974C28.137 45.0627 28.0766 45.0123 28.03 44.9502L25.5 42.4502C25.4069 42.3621 25.3456 42.2455 25.3257 42.1189C25.3058 41.9922 25.3284 41.8626 25.39 41.7502L27.52 36.4502C25.2083 36.6858 23.0642 37.764 21.4965 39.4792C19.9289 41.1945 19.0473 43.4267 19.02 45.7502C19.03 46.8036 19.202 47.8491 19.53 48.8502H22.77V45.7502C22.789 45.6031 22.8608 45.468 22.9722 45.3701C23.0835 45.2721 23.2267 45.2181 23.375 45.2181C23.5233 45.2181 23.6665 45.2721 23.7778 45.3701C23.8892 45.468 23.9611 45.6031 23.98 45.7502V48.8502H32.89V45.7502C32.909 45.6031 32.9808 45.468 33.0922 45.3701C33.2035 45.2721 33.3467 45.2181 33.495 45.2181C33.6433 45.2181 33.7865 45.2721 33.8978 45.3701C34.0092 45.468 34.0811 45.6031 34.1 45.7502V48.8502H37.33Z" fill="white"/>
<path d="M47.45 35.05C48.3181 35.0401 49.1638 34.7737 49.8807 34.2842C50.5977 33.7948 51.1539 33.1042 51.4792 32.2994C51.8046 31.4946 51.8847 30.6115 51.7093 29.7613C51.5339 28.9111 51.1109 28.1318 50.4937 27.5215C49.8764 26.9111 49.0923 26.497 48.2402 26.3312C47.388 26.1654 46.5059 26.2554 45.7048 26.5899C44.9037 26.9243 44.2195 27.4883 43.7382 28.2107C43.2569 28.9332 43.0001 29.7818 43 30.6499C43 31.232 43.1154 31.8083 43.3397 32.3454C43.5639 32.8825 43.8925 33.3698 44.3064 33.779C44.7203 34.1883 45.2112 34.5113 45.7509 34.7295C46.2905 34.9476 46.868 35.0566 47.45 35.05Z" fill="white"/>
<path d="M49.1601 41.7501L47.4401 37.3501L45.6201 41.7501L47.4401 43.5501L49.1601 41.7501Z" fill="white"/>
<path d="M15.7901 23.85C15.8444 23.8566 15.8994 23.851 15.9513 23.8337C16.0031 23.8164 16.0506 23.7879 16.0901 23.7501L24.99 18.7501H25.0901V18.15V9.35004C25.0782 9.19314 25.0099 9.04589 24.8977 8.93555C24.7855 8.82521 24.6372 8.7593 24.4801 8.75006H20.94L28.43 1.55005L35.7101 8.75006H32.1701C32.0148 8.76161 31.8688 8.82854 31.7586 8.93866C31.6485 9.04878 31.5816 9.19474 31.57 9.35004V18.15V18.7501H31.6701L40.57 23.7501C40.6096 23.7879 40.657 23.8164 40.7088 23.8337C40.7607 23.851 40.8157 23.8566 40.87 23.85C40.9746 23.8526 41.0777 23.8259 41.1679 23.7729C41.258 23.7199 41.3315 23.6427 41.38 23.55C41.4263 23.4779 41.4577 23.3973 41.4727 23.3129C41.4877 23.2286 41.4858 23.1421 41.4672 23.0585C41.4486 22.9748 41.4137 22.8957 41.3644 22.8256C41.3151 22.7555 41.2525 22.6958 41.18 22.65L32.68 17.85V10.05H37.13C37.2589 10.047 37.3844 10.008 37.4922 9.93726C37.6 9.86656 37.6859 9.76703 37.74 9.65002C37.7727 9.53277 37.7807 9.41004 37.7635 9.28955C37.7463 9.16906 37.7042 9.05349 37.6401 8.95007L28.7301 0.150024C28.5987 0.0518318 28.4391 -0.0012207 28.2751 -0.0012207C28.111 -0.0012207 27.9514 0.0518318 27.82 0.150024L18.9201 8.95007C18.83 9.04029 18.7716 9.1572 18.7536 9.28339C18.7356 9.40957 18.7589 9.5382 18.82 9.65002C18.8732 9.76775 18.9588 9.86794 19.0669 9.93878C19.1749 10.0096 19.3009 10.0482 19.43 10.05H23.8901V17.85L15.3901 22.65C15.3176 22.6958 15.2549 22.7555 15.2057 22.8256C15.1564 22.8957 15.1215 22.9748 15.1029 23.0585C15.0843 23.1421 15.0824 23.2286 15.0974 23.3129C15.1123 23.3973 15.1438 23.4779 15.19 23.55C15.38 23.65 15.5801 23.85 15.7901 23.85Z" fill="white"/>
<path d="M56.25 53.8501H0.609985C0.450855 53.8501 0.298252 53.9133 0.18573 54.0258C0.0732082 54.1383 0.0100098 54.291 0.0100098 54.4501C0.0100098 54.6093 0.0732082 54.7619 0.18573 54.8744C0.298252 54.9869 0.450855 55.0501 0.609985 55.0501H56.25C56.4091 55.0501 56.5617 54.9869 56.6743 54.8744C56.7868 54.7619 56.85 54.6093 56.85 54.4501C56.85 54.291 56.7868 54.1383 56.6743 54.0258C56.5617 53.9133 56.4091 53.8501 56.25 53.8501Z" fill="white"/>
<path d="M5.67004 17.5501C6.2814 17.5422 6.87672 17.3538 7.38123 17.0084C7.88573 16.663 8.27686 16.1761 8.50537 15.609C8.73388 15.0419 8.78956 14.4199 8.66547 13.8212C8.54137 13.2225 8.24302 12.6739 7.80792 12.2443C7.37283 11.8148 6.82044 11.5235 6.22021 11.407C5.61999 11.2906 4.99876 11.3543 4.43463 11.5901C3.87051 11.8259 3.3887 12.2232 3.0498 12.7321C2.71091 13.2409 2.53008 13.8387 2.53003 14.4501C2.53795 15.2768 2.87258 16.0667 3.46088 16.6475C4.04917 17.2283 4.84336 17.5528 5.67004 17.5501Z" fill="white"/>
<path d="M42.3901 5.65006C42.6463 5.654 42.8957 5.73359 43.1068 5.87882C43.3179 6.02404 43.4814 6.22842 43.5768 6.46628C43.6721 6.70414 43.695 6.96489 43.6426 7.21573C43.5902 7.46657 43.4649 7.69632 43.2823 7.87613C43.0997 8.05594 42.8681 8.17779 42.6165 8.22635C42.3648 8.27491 42.1045 8.24803 41.8681 8.14908C41.6317 8.05013 41.4298 7.88353 41.2878 7.6702C41.1459 7.45687 41.0701 7.20636 41.0701 6.9501C41.07 6.77769 41.1043 6.60695 41.1709 6.44791C41.2375 6.28887 41.335 6.14469 41.4579 6.02371C41.5807 5.90273 41.7264 5.8074 41.8864 5.74326C42.0465 5.67911 42.2177 5.6474 42.3901 5.65006Z" fill="white"/>
<path d="M13.2599 5.64994C13.5162 5.65388 13.7655 5.73348 13.9767 5.8787C14.1878 6.02392 14.3513 6.2283 14.4467 6.46616C14.542 6.70403 14.5649 6.96477 14.5125 7.21561C14.4601 7.46646 14.3347 7.6962 14.1522 7.87601C13.9696 8.05583 13.7379 8.17767 13.4863 8.22623C13.2347 8.2748 12.9744 8.24792 12.738 8.14896C12.5016 8.05001 12.2997 7.88341 12.1577 7.67008C12.0157 7.45675 11.94 7.20625 11.9399 6.94999C11.9412 6.77796 11.9765 6.60782 12.0435 6.44938C12.1106 6.29094 12.2081 6.14731 12.3307 6.02659C12.4533 5.90587 12.5984 5.81045 12.7579 5.74583C12.9173 5.68121 13.0879 5.64862 13.2599 5.64994Z" fill="white"/>
<path d="M1.89008 21.8501C2.1463 21.8541 2.39567 21.9337 2.60681 22.0789C2.81795 22.2241 2.98145 22.4285 3.07678 22.6664C3.17212 22.9042 3.19504 23.165 3.14264 23.4158C3.09024 23.6667 2.96487 23.8964 2.78229 24.0762C2.59971 24.256 2.36807 24.3779 2.11646 24.4264C1.86484 24.475 1.60448 24.4481 1.3681 24.3492C1.13172 24.2502 0.929823 24.0836 0.787842 23.8703C0.645861 23.6569 0.570099 23.4064 0.570068 23.1501C0.571377 22.9781 0.606539 22.808 0.673584 22.6496C0.740629 22.4911 0.838241 22.3475 0.960815 22.2268C1.08339 22.1061 1.22856 22.0106 1.388 21.946C1.54744 21.8814 1.71804 21.8488 1.89008 21.8501Z" fill="white"/>
</g>
<defs>
<clipPath id="clip0_419_2226">
<rect width="56.85" height="55.05" fill="white"/>
</clipPath>
</defs>
</svg>
