<svg width="54" height="56" viewBox="0 0 54 56" fill="none" xmlns="http://www.w3.org/2000/svg">
<g clip-path="url(#clip0_419_2264)">
<path d="M10.3101 12.2L10.21 12.1V12V11.9V11.8V11.7L12.7401 5.39999V5.30002C12.7401 5.2735 12.7506 5.24806 12.7693 5.22931C12.7881 5.21056 12.8135 5.20001 12.84 5.20001L12.9401 5.10001H36.3101L36.41 5.20001C36.41 5.22653 36.4206 5.25197 36.4393 5.27072C36.4581 5.28947 36.4835 5.30002 36.51 5.30002V5.39999L39.04 11.7V11.8V11.9V12V12.1L25.89 28.6H41.77V25.3C41.5744 25.1943 41.4136 25.0341 41.3071 24.8389C41.2006 24.6437 41.153 24.4217 41.17 24.2C41.1745 23.982 41.2314 23.7682 41.3358 23.5768C41.4402 23.3853 41.5891 23.2218 41.77 23.1V0H7.68005V28.8H23.46L10.3101 12.2ZM37.3101 23.1C37.0538 23.0961 36.8045 23.0165 36.5933 22.8712C36.3822 22.726 36.2187 22.5216 36.1234 22.2838C36.028 22.0459 36.0051 21.7852 36.0575 21.5344C36.1099 21.2835 36.2353 21.0537 36.4178 20.8739C36.6004 20.6941 36.8321 20.5723 37.0837 20.5237C37.3353 20.4752 37.5956 20.502 37.832 20.601C38.0684 20.6999 38.2703 20.8666 38.4122 21.0799C38.5542 21.2932 38.63 21.5438 38.6301 21.8C38.6223 22.1441 38.4815 22.4718 38.2372 22.7142C37.993 22.9566 37.6641 23.0949 37.32 23.1H37.3101ZM9.50006 3.10001C9.49609 2.83812 9.5701 2.58099 9.71271 2.3613C9.85532 2.14161 10.0601 1.96931 10.3009 1.86633C10.5417 1.76335 10.8077 1.73434 11.0651 1.78299C11.3224 1.83164 11.5595 1.95574 11.7461 2.13953C11.9327 2.32331 12.0605 2.55845 12.113 2.81503C12.1656 3.07162 12.1407 3.33805 12.0414 3.58041C11.9421 3.82278 11.7729 4.03014 11.5554 4.17609C11.3379 4.32203 11.0819 4.39996 10.82 4.39999C10.4741 4.39748 10.1429 4.26034 9.89642 4.01764C9.64999 3.77494 9.50785 3.4458 9.50006 3.10001ZM12.03 24.4C11.7738 24.3961 11.5245 24.3165 11.3134 24.1713C11.1022 24.026 10.9387 23.8217 10.8433 23.5838C10.748 23.3459 10.7251 23.0852 10.7775 22.8344C10.8299 22.5835 10.9552 22.3537 11.1378 22.1739C11.3204 21.9941 11.5521 21.8723 11.8037 21.8237C12.0553 21.7752 12.3157 21.802 12.5521 21.901C12.7884 22 12.9903 22.1666 13.1323 22.3799C13.2742 22.5932 13.35 22.8437 13.35 23.1C13.3422 23.4458 13.2 23.7749 12.9536 24.0176C12.7072 24.2603 12.3759 24.3975 12.03 24.4Z" fill="white"/>
<path d="M35.81 6.5L27.11 11.2H29.74H37.73L35.81 6.5Z" fill="white"/>
<path d="M37.3301 12.5H30.2501L26.2001 26.5L37.3301 12.5Z" fill="white"/>
<path d="M2.60005 19.9999C2.60402 19.738 2.53001 19.4809 2.3874 19.2612C2.24479 19.0415 2.04003 18.8692 1.79921 18.7662C1.55839 18.6632 1.29235 18.6342 1.03499 18.6829C0.777629 18.7315 0.540568 18.8556 0.353957 19.0394C0.167346 19.2232 0.0396493 19.4584 -0.0129253 19.715C-0.0654999 19.9715 -0.040563 20.2379 0.05873 20.4803C0.158023 20.7227 0.327207 20.93 0.544692 21.076C0.762177 21.2219 1.01813 21.2999 1.28004 21.2999C1.62591 21.2974 1.9572 21.1602 2.20363 20.9175C2.45006 20.6748 2.59226 20.3457 2.60005 19.9999Z" fill="white"/>
<path d="M49.3601 48.7C49.1039 48.7039 48.8545 48.7835 48.6434 48.9287C48.4322 49.0739 48.2687 49.2783 48.1734 49.5161C48.0781 49.754 48.0551 50.0148 48.1075 50.2656C48.1599 50.5164 48.2853 50.7462 48.4679 50.926C48.6505 51.1058 48.8821 51.2277 49.1337 51.2762C49.3853 51.3248 49.6457 51.2979 49.8821 51.1989C50.1185 51.1 50.3204 50.9334 50.4623 50.7201C50.6043 50.5067 50.6801 50.2562 50.6801 49.9999C50.6723 49.6542 50.5301 49.325 50.2837 49.0823C50.0373 48.8396 49.706 48.7025 49.3601 48.7Z" fill="white"/>
<path d="M49.9701 17.5001C50.2209 17.5014 50.4695 17.4533 50.7018 17.3585C50.934 17.2638 51.1453 17.1242 51.3236 16.9477C51.5019 16.7713 51.6437 16.5615 51.7409 16.3302C51.8381 16.099 51.8888 15.8509 51.8901 15.6001C51.8971 15.347 51.8521 15.0951 51.7579 14.8601C51.6636 14.625 51.5221 14.4119 51.3421 14.2337C51.1621 14.0556 50.9475 13.9164 50.7115 13.8246C50.4755 13.7328 50.2231 13.6904 49.9701 13.7001C49.4662 13.7001 48.9829 13.9003 48.6266 14.2566C48.2703 14.6129 48.0701 15.0962 48.0701 15.6001C48.0701 16.104 48.2703 16.5873 48.6266 16.9436C48.9829 17.2999 49.4662 17.5001 49.9701 17.5001Z" fill="white"/>
<path d="M24.68 11.1L33.69 6.19995H15.78L24.68 11.1Z" fill="white"/>
<path d="M11.73 11.2H19.63H22.25L13.66 6.5L11.73 11.2Z" fill="white"/>
<path d="M19.22 12.5H12.14L23.17 26.5L19.22 12.5Z" fill="white"/>
<path d="M52.29 33.3C52.015 33.0157 51.6856 32.7897 51.3214 32.6353C50.9571 32.4809 50.5656 32.4014 50.17 32.4014C49.7745 32.4014 49.3829 32.4809 49.0187 32.6353C48.6545 32.7897 48.3251 33.0157 48.05 33.3L36.6 43.8C36.4565 44.5458 36.1105 45.2377 35.6 45.8C35.2144 46.2023 34.7472 46.5174 34.2298 46.7244C33.7124 46.9314 33.1567 47.0253 32.6 47L19.7501 46.4C19.6647 46.3934 19.5815 46.3701 19.5051 46.3314C19.4288 46.2927 19.3608 46.2393 19.3051 46.1743C19.2493 46.1093 19.207 46.0339 19.1804 45.9525C19.1538 45.8712 19.1435 45.7854 19.15 45.7C19.1566 45.6147 19.1799 45.5314 19.2186 45.4551C19.2574 45.3787 19.3108 45.3108 19.3758 45.255C19.4408 45.1993 19.5161 45.1569 19.5975 45.1303C19.6788 45.1037 19.7647 45.0934 19.85 45.1L32.7 45.8C33.4796 45.7954 34.2317 45.5116 34.82 45C35.163 44.6332 35.3961 44.1774 35.4926 43.6846C35.5891 43.1918 35.5453 42.6817 35.366 42.2126C35.1867 41.7435 34.8792 41.3342 34.4785 41.0314C34.0779 40.7286 33.6003 40.5445 33.1 40.5L10.04 38L1.04004 46.9L10.2401 56L12.57 53.7L7.31006 48.5C7.21269 48.3702 7.16003 48.2123 7.16003 48.05C7.16003 47.8877 7.21269 47.7298 7.31006 47.6C7.44143 47.5018 7.601 47.4488 7.76501 47.4488C7.92903 47.4488 8.08866 47.5018 8.22003 47.6L13.6801 53L35.73 53.8L52.32 37.4C52.8547 36.8497 53.1513 36.1111 53.1457 35.3438C53.1401 34.5766 52.8327 33.8424 52.29 33.3Z" fill="white"/>
<path d="M4.45001 33.7001H44.91C45.1609 33.7014 45.4095 33.6533 45.6417 33.5585C45.874 33.4637 46.0853 33.3241 46.2635 33.1477C46.4418 32.9713 46.5836 32.7615 46.6808 32.5302C46.778 32.299 46.8287 32.0509 46.83 31.8001C46.837 31.5469 46.7921 31.2951 46.6978 31.06C46.6036 30.825 46.462 30.6118 46.282 30.4337C46.1021 30.2556 45.8874 30.1163 45.6514 30.0245C45.4154 29.9327 45.1631 29.8904 44.91 29.9H4.45001C3.9461 29.9 3.46283 30.1002 3.10651 30.4566C2.75019 30.8129 2.55005 31.2961 2.55005 31.8001C2.55005 32.304 2.75019 32.7872 3.10651 33.1436C3.46283 33.4999 3.9461 33.7001 4.45001 33.7001Z" fill="white"/>
<path d="M28.93 12.5H20.54L24.68 27.1L28.93 12.5Z" fill="white"/>
</g>
<defs>
<clipPath id="clip0_419_2264">
<rect width="53.13" height="56" fill="white"/>
</clipPath>
</defs>
</svg>
